<mxfile host="app.diagrams.net" modified="2022-12-13T08:31:18.148Z" agent="5.0 (Macintosh; Intel Mac OS X 10_15_7) AppleWebKit/537.36 (KHTML, like Gecko) Chrome/108.0.0.0 Safari/537.36" etag="UPI_gL2wA72woHCGgFXs" version="20.6.2" type="github">
  <diagram id="baoqh9VQitQx3tMwzhhu" name="Page-1">
    <mxGraphModel dx="1121" dy="457" grid="1" gridSize="10" guides="1" tooltips="1" connect="1" arrows="1" fold="1" page="1" pageScale="1" pageWidth="850" pageHeight="1100" math="0" shadow="0">
      <root>
        <mxCell id="0" />
        <mxCell id="1" parent="0" />
        <mxCell id="BIO4IS6ZjkeBMrx9p8Xg-3" style="edgeStyle=orthogonalEdgeStyle;rounded=0;orthogonalLoop=1;jettySize=auto;html=1;entryX=0.5;entryY=0;entryDx=0;entryDy=0;" parent="1" target="BIO4IS6ZjkeBMrx9p8Xg-2" edge="1">
          <mxGeometry relative="1" as="geometry">
            <mxPoint x="260" y="187" as="sourcePoint" />
          </mxGeometry>
        </mxCell>
        <mxCell id="BIO4IS6ZjkeBMrx9p8Xg-1" value="输入数据" style="rounded=1;whiteSpace=wrap;html=1;" parent="1" vertex="1">
          <mxGeometry x="200" y="130" width="120" height="60" as="geometry" />
        </mxCell>
        <mxCell id="BIO4IS6ZjkeBMrx9p8Xg-15" style="edgeStyle=orthogonalEdgeStyle;rounded=0;orthogonalLoop=1;jettySize=auto;html=1;entryX=0.5;entryY=0;entryDx=0;entryDy=0;" parent="1" source="BIO4IS6ZjkeBMrx9p8Xg-2" target="BIO4IS6ZjkeBMrx9p8Xg-6" edge="1">
          <mxGeometry relative="1" as="geometry" />
        </mxCell>
        <mxCell id="BIO4IS6ZjkeBMrx9p8Xg-2" value="输入运算符" style="rounded=1;whiteSpace=wrap;html=1;" parent="1" vertex="1">
          <mxGeometry x="200" y="247" width="120" height="60" as="geometry" />
        </mxCell>
        <mxCell id="BIO4IS6ZjkeBMrx9p8Xg-18" style="edgeStyle=orthogonalEdgeStyle;rounded=0;orthogonalLoop=1;jettySize=auto;html=1;" parent="1" source="BIO4IS6ZjkeBMrx9p8Xg-6" edge="1">
          <mxGeometry relative="1" as="geometry">
            <mxPoint x="260" y="500" as="targetPoint" />
          </mxGeometry>
        </mxCell>
        <mxCell id="BIO4IS6ZjkeBMrx9p8Xg-42" style="edgeStyle=orthogonalEdgeStyle;rounded=0;orthogonalLoop=1;jettySize=auto;html=1;entryX=0;entryY=0.5;entryDx=0;entryDy=0;" parent="1" source="BIO4IS6ZjkeBMrx9p8Xg-6" target="BIO4IS6ZjkeBMrx9p8Xg-1" edge="1">
          <mxGeometry relative="1" as="geometry">
            <Array as="points">
              <mxPoint x="150" y="388" />
              <mxPoint x="150" y="160" />
            </Array>
          </mxGeometry>
        </mxCell>
        <mxCell id="BIO4IS6ZjkeBMrx9p8Xg-6" value="检查输入算式，&lt;br&gt;字符是否正确" style="rhombus;whiteSpace=wrap;html=1;" parent="1" vertex="1">
          <mxGeometry x="190" y="338" width="140" height="100" as="geometry" />
        </mxCell>
        <mxCell id="BIO4IS6ZjkeBMrx9p8Xg-7" value="加法" style="rounded=1;whiteSpace=wrap;html=1;" parent="1" vertex="1">
          <mxGeometry x="100" y="650" width="120" height="60" as="geometry" />
        </mxCell>
        <mxCell id="BIO4IS6ZjkeBMrx9p8Xg-8" value="除法" style="rounded=1;whiteSpace=wrap;html=1;" parent="1" vertex="1">
          <mxGeometry x="250" y="650" width="120" height="60" as="geometry" />
        </mxCell>
        <mxCell id="BIO4IS6ZjkeBMrx9p8Xg-12" style="edgeStyle=orthogonalEdgeStyle;rounded=0;orthogonalLoop=1;jettySize=auto;html=1;entryX=0.5;entryY=0;entryDx=0;entryDy=0;" parent="1" source="BIO4IS6ZjkeBMrx9p8Xg-11" target="BIO4IS6ZjkeBMrx9p8Xg-1" edge="1">
          <mxGeometry relative="1" as="geometry" />
        </mxCell>
        <mxCell id="BIO4IS6ZjkeBMrx9p8Xg-11" value="开始" style="rounded=1;whiteSpace=wrap;html=1;" parent="1" vertex="1">
          <mxGeometry x="200" y="10" width="120" height="60" as="geometry" />
        </mxCell>
        <mxCell id="BIO4IS6ZjkeBMrx9p8Xg-21" value="乘法" style="rounded=1;whiteSpace=wrap;html=1;" parent="1" vertex="1">
          <mxGeometry x="400" y="650" width="120" height="60" as="geometry" />
        </mxCell>
        <mxCell id="BIO4IS6ZjkeBMrx9p8Xg-22" value="减法" style="rounded=1;whiteSpace=wrap;html=1;" parent="1" vertex="1">
          <mxGeometry x="550" y="650" width="120" height="60" as="geometry" />
        </mxCell>
        <mxCell id="BIO4IS6ZjkeBMrx9p8Xg-23" value="" style="endArrow=none;html=1;rounded=0;exitX=0.5;exitY=0;exitDx=0;exitDy=0;" parent="1" source="BIO4IS6ZjkeBMrx9p8Xg-7" edge="1">
          <mxGeometry width="50" height="50" relative="1" as="geometry">
            <mxPoint x="270" y="550" as="sourcePoint" />
            <mxPoint x="320" y="500" as="targetPoint" />
            <Array as="points">
              <mxPoint x="160" y="500" />
            </Array>
          </mxGeometry>
        </mxCell>
        <mxCell id="BIO4IS6ZjkeBMrx9p8Xg-24" value="" style="endArrow=none;html=1;rounded=0;exitX=0.583;exitY=0;exitDx=0;exitDy=0;exitPerimeter=0;" parent="1" source="BIO4IS6ZjkeBMrx9p8Xg-8" edge="1">
          <mxGeometry width="50" height="50" relative="1" as="geometry">
            <mxPoint x="320" y="640" as="sourcePoint" />
            <mxPoint x="320" y="500" as="targetPoint" />
          </mxGeometry>
        </mxCell>
        <mxCell id="BIO4IS6ZjkeBMrx9p8Xg-25" value="" style="endArrow=none;html=1;rounded=0;exitX=0.5;exitY=0;exitDx=0;exitDy=0;" parent="1" source="BIO4IS6ZjkeBMrx9p8Xg-21" edge="1">
          <mxGeometry width="50" height="50" relative="1" as="geometry">
            <mxPoint x="340" y="550" as="sourcePoint" />
            <mxPoint x="310" y="500" as="targetPoint" />
            <Array as="points">
              <mxPoint x="460" y="500" />
            </Array>
          </mxGeometry>
        </mxCell>
        <mxCell id="BIO4IS6ZjkeBMrx9p8Xg-26" value="" style="endArrow=none;html=1;rounded=0;exitX=0.567;exitY=0.017;exitDx=0;exitDy=0;exitPerimeter=0;" parent="1" source="BIO4IS6ZjkeBMrx9p8Xg-22" edge="1">
          <mxGeometry width="50" height="50" relative="1" as="geometry">
            <mxPoint x="410" y="550" as="sourcePoint" />
            <mxPoint x="460" y="500" as="targetPoint" />
            <Array as="points">
              <mxPoint x="618" y="500" />
            </Array>
          </mxGeometry>
        </mxCell>
        <mxCell id="BIO4IS6ZjkeBMrx9p8Xg-31" value="" style="endArrow=none;html=1;rounded=0;exitX=0.5;exitY=1;exitDx=0;exitDy=0;" parent="1" source="BIO4IS6ZjkeBMrx9p8Xg-7" edge="1">
          <mxGeometry width="50" height="50" relative="1" as="geometry">
            <mxPoint x="360" y="760" as="sourcePoint" />
            <mxPoint x="320" y="800" as="targetPoint" />
            <Array as="points">
              <mxPoint x="160" y="800" />
            </Array>
          </mxGeometry>
        </mxCell>
        <mxCell id="BIO4IS6ZjkeBMrx9p8Xg-33" value="" style="endArrow=none;html=1;rounded=0;" parent="1" edge="1">
          <mxGeometry width="50" height="50" relative="1" as="geometry">
            <mxPoint x="320" y="800" as="sourcePoint" />
            <mxPoint x="320" y="710" as="targetPoint" />
          </mxGeometry>
        </mxCell>
        <mxCell id="BIO4IS6ZjkeBMrx9p8Xg-34" value="" style="endArrow=none;html=1;rounded=0;entryX=0.5;entryY=1;entryDx=0;entryDy=0;" parent="1" target="BIO4IS6ZjkeBMrx9p8Xg-21" edge="1">
          <mxGeometry width="50" height="50" relative="1" as="geometry">
            <mxPoint x="320" y="800" as="sourcePoint" />
            <mxPoint x="330" y="720" as="targetPoint" />
            <Array as="points">
              <mxPoint x="460" y="800" />
            </Array>
          </mxGeometry>
        </mxCell>
        <mxCell id="BIO4IS6ZjkeBMrx9p8Xg-36" value="" style="endArrow=none;html=1;rounded=0;entryX=0.5;entryY=1;entryDx=0;entryDy=0;" parent="1" target="BIO4IS6ZjkeBMrx9p8Xg-22" edge="1">
          <mxGeometry width="50" height="50" relative="1" as="geometry">
            <mxPoint x="460" y="800" as="sourcePoint" />
            <mxPoint x="410" y="710" as="targetPoint" />
            <Array as="points">
              <mxPoint x="610" y="800" />
            </Array>
          </mxGeometry>
        </mxCell>
        <mxCell id="e54Z6Mz7cazYA64zyjDr-4" style="edgeStyle=orthogonalEdgeStyle;rounded=0;orthogonalLoop=1;jettySize=auto;html=1;entryX=0.5;entryY=0;entryDx=0;entryDy=0;" edge="1" parent="1" source="BIO4IS6ZjkeBMrx9p8Xg-37" target="BIO4IS6ZjkeBMrx9p8Xg-40">
          <mxGeometry relative="1" as="geometry" />
        </mxCell>
        <mxCell id="BIO4IS6ZjkeBMrx9p8Xg-37" value="输出结果" style="shape=parallelogram;perimeter=parallelogramPerimeter;whiteSpace=wrap;html=1;fixedSize=1;" parent="1" vertex="1">
          <mxGeometry x="319" y="840" width="120" height="60" as="geometry" />
        </mxCell>
        <mxCell id="BIO4IS6ZjkeBMrx9p8Xg-38" value="" style="endArrow=classic;html=1;rounded=0;" parent="1" edge="1">
          <mxGeometry width="50" height="50" relative="1" as="geometry">
            <mxPoint x="380" y="800" as="sourcePoint" />
            <mxPoint x="380" y="840" as="targetPoint" />
          </mxGeometry>
        </mxCell>
        <mxCell id="BIO4IS6ZjkeBMrx9p8Xg-41" style="edgeStyle=orthogonalEdgeStyle;rounded=0;orthogonalLoop=1;jettySize=auto;html=1;entryX=1;entryY=0.5;entryDx=0;entryDy=0;" parent="1" source="BIO4IS6ZjkeBMrx9p8Xg-40" target="BIO4IS6ZjkeBMrx9p8Xg-1" edge="1">
          <mxGeometry relative="1" as="geometry">
            <Array as="points">
              <mxPoint x="710" y="990" />
              <mxPoint x="710" y="160" />
            </Array>
          </mxGeometry>
        </mxCell>
        <mxCell id="BIO4IS6ZjkeBMrx9p8Xg-46" value="t" style="edgeLabel;html=1;align=center;verticalAlign=middle;resizable=0;points=[];" parent="BIO4IS6ZjkeBMrx9p8Xg-41" vertex="1" connectable="0">
          <mxGeometry x="-0.8915" y="-2" relative="1" as="geometry">
            <mxPoint as="offset" />
          </mxGeometry>
        </mxCell>
        <mxCell id="BIO4IS6ZjkeBMrx9p8Xg-44" style="edgeStyle=orthogonalEdgeStyle;rounded=0;orthogonalLoop=1;jettySize=auto;html=1;entryX=1;entryY=0.5;entryDx=0;entryDy=0;" parent="1" source="BIO4IS6ZjkeBMrx9p8Xg-40" target="BIO4IS6ZjkeBMrx9p8Xg-43" edge="1">
          <mxGeometry relative="1" as="geometry" />
        </mxCell>
        <mxCell id="BIO4IS6ZjkeBMrx9p8Xg-45" value="f" style="edgeLabel;html=1;align=center;verticalAlign=middle;resizable=0;points=[];" parent="BIO4IS6ZjkeBMrx9p8Xg-44" vertex="1" connectable="0">
          <mxGeometry x="-0.322" y="-1" relative="1" as="geometry">
            <mxPoint as="offset" />
          </mxGeometry>
        </mxCell>
        <mxCell id="BIO4IS6ZjkeBMrx9p8Xg-40" value="是否继续" style="rhombus;whiteSpace=wrap;html=1;" parent="1" vertex="1">
          <mxGeometry x="339" y="950" width="80" height="80" as="geometry" />
        </mxCell>
        <mxCell id="BIO4IS6ZjkeBMrx9p8Xg-43" value="结束" style="rounded=1;whiteSpace=wrap;html=1;" parent="1" vertex="1">
          <mxGeometry x="160" y="960" width="120" height="60" as="geometry" />
        </mxCell>
      </root>
    </mxGraphModel>
  </diagram>
</mxfile>
